<!-- Generated by IcoMoon.io -->
<svg version="1.1" xmlns="http://www.w3.org/2000/svg" width="26" height="26" viewBox="0 0 26 26">
<title>quotes-left</title>
<path d="M5.713 11.375c3.141 0 5.688 2.546 5.688 5.688s-2.546 5.688-5.688 5.688-5.688-2.546-5.688-5.688l-0.025-0.813c0-6.282 5.093-11.375 11.375-11.375v3.25c-2.17 0-4.211 0.845-5.745 2.38-0.295 0.295-0.565 0.61-0.808 0.94 0.29-0.046 0.588-0.070 0.891-0.070zM20.338 11.375c3.141 0 5.688 2.546 5.688 5.688s-2.546 5.688-5.688 5.688-5.688-2.546-5.688-5.688l-0.025-0.813c0-6.282 5.093-11.375 11.375-11.375v3.25c-2.17 0-4.211 0.845-5.745 2.38-0.295 0.295-0.565 0.61-0.808 0.94 0.29-0.046 0.588-0.070 0.891-0.070z"></path>
</svg>
