<!-- Generated by IcoMoon.io -->
<svg version="1.1" xmlns="http://www.w3.org/2000/svg" width="23" height="23" viewBox="0 0 23 23">
<title>instagram</title>
<path fill="#ffff" d="M11.5 0c-3.124 0-3.514 0.014-4.741 0.069-1.225 0.057-2.059 0.25-2.792 0.535-0.756 0.293-1.398 0.687-2.037 1.326s-1.034 1.28-1.326 2.037c-0.285 0.733-0.478 1.567-0.535 2.792-0.058 1.227-0.069 1.617-0.069 4.741s0.014 3.514 0.069 4.741c0.057 1.224 0.25 2.059 0.535 2.792 0.293 0.755 0.687 1.398 1.326 2.037s1.28 1.034 2.037 1.326c0.734 0.284 1.568 0.478 2.792 0.535 1.227 0.057 1.617 0.069 4.741 0.069s3.514-0.014 4.741-0.069c1.224-0.058 2.059-0.251 2.792-0.535 0.755-0.293 1.398-0.688 2.037-1.326s1.034-1.279 1.326-2.037c0.284-0.733 0.478-1.568 0.535-2.792 0.057-1.227 0.069-1.617 0.069-4.741s-0.014-3.514-0.069-4.741c-0.058-1.224-0.251-2.059-0.535-2.792-0.293-0.756-0.688-1.398-1.326-2.037s-1.279-1.034-2.037-1.326c-0.733-0.285-1.568-0.478-2.792-0.535-1.227-0.058-1.617-0.069-4.741-0.069zM11.5 2.070c3.070 0 3.436 0.015 4.648 0.068 1.121 0.053 1.73 0.239 2.134 0.398 0.539 0.208 0.92 0.457 1.324 0.859 0.402 0.403 0.651 0.785 0.859 1.323 0.157 0.404 0.345 1.013 0.396 2.134 0.055 1.213 0.067 1.577 0.067 4.648s-0.014 3.436-0.071 4.648c-0.058 1.121-0.245 1.73-0.403 2.134-0.215 0.539-0.459 0.92-0.862 1.324-0.402 0.402-0.79 0.651-1.322 0.859-0.402 0.157-1.021 0.345-2.142 0.396-1.221 0.055-1.58 0.067-4.657 0.067s-3.437-0.014-4.657-0.071c-1.122-0.058-1.74-0.245-2.143-0.403-0.545-0.215-0.92-0.459-1.322-0.862-0.403-0.402-0.661-0.79-0.863-1.322-0.158-0.402-0.344-1.021-0.402-2.142-0.043-1.208-0.058-1.58-0.058-4.642s0.015-3.437 0.058-4.658c0.058-1.121 0.244-1.738 0.402-2.141 0.201-0.546 0.459-0.92 0.863-1.323 0.402-0.402 0.776-0.66 1.322-0.861 0.403-0.159 1.007-0.346 2.128-0.403 1.222-0.043 1.581-0.058 4.657-0.058zM11.5 5.595c-3.263 0-5.905 2.645-5.905 5.905 0 3.263 2.645 5.905 5.905 5.905 3.263 0 5.905-2.645 5.905-5.905 0-3.263-2.645-5.905-5.905-5.905zM11.5 15.333c-2.118 0-3.833-1.715-3.833-3.833s1.715-3.833 3.833-3.833 3.833 1.715 3.833 3.833-1.715 3.833-3.833 3.833zM19.019 5.362c0 0.762-0.619 1.38-1.38 1.38s-1.38-0.619-1.38-1.38 0.619-1.379 1.38-1.379c0.76-0.001 1.38 0.618 1.38 1.379z"></path>
</svg>
